<svg xmlns="http://www.w3.org/2000/svg" viewBox="0 0 332.25 198.75">
    <g transform="translate(35, 29)">
        <path d="M 28.484375 0 L 28.484375 -28.8125 L 0.703125 -74.03125 L 18.96875 -74.03125 L 36.921875 -42.984375 L 54.21875 -74.03125 L 72.484375 -74.03125 L 44.75 -28.8125 L 44.75 0 Z M 28.484375 0" transform="translate(1.13297, 94.085879)" />
        <path d="M 69.453125 -74.03125 L 95.1875 -74.03125 L 95.1875 0 L 78.96875 0 L 78.96875 -57.796875 L 78.5 -57.796875 L 59.34375 0 L 44.609375 0 L 25.5 -57.796875 L 24.984375 -57.796875 L 24.984375 0 L 8.765625 0 L 8.765625 -74.03125 L 34.5 -74.03125 L 51.96875 -20.984375 Z M 69.453125 -74.03125" transform="translate(67.635301, 94.085879)" />
        <path d="M 9.609375 0 L 9.609375 -16.96875 L 26.4375 -16.96875 L 26.4375 0 Z M 9.609375 0" transform="translate(164.903656, 94.085879)" />
        <path d="M 9.5625 12.359375 L 9.5625 0 L 56.078125 0 L 56.078125 12.359375 Z M 9.5625 12.359375" transform="translate(194.207067, 94.085879)" />
    </g>
    <style>
        path { fill: #F54927; }
    </style>
</svg>
