<svg xmlns="http://www.w3.org/2000/svg" xmlns:xlink="http://www.w3.org/1999/xlink" width="443" zoomAndPan="magnify" viewBox="0 0 332.25 198.749995" height="265" preserveAspectRatio="xMidYMid meet" version="1.0"><defs><g/><clipPath id="84e67148e2"><rect x="0" width="254" y="0" height="116"/></clipPath><clipPath id="a1f847dc4d"><path d="M 0.433594 6 L 23 6 L 23 30 L 0.433594 30 Z M 0.433594 6 " clip-rule="nonzero"/></clipPath><clipPath id="2a5c5eafd0"><path d="M 105 6 L 110.824219 6 L 110.824219 30 L 105 30 Z M 105 6 " clip-rule="nonzero"/></clipPath><clipPath id="e235862315"><rect x="0" width="111" y="0" height="62"/></clipPath></defs><g transform="matrix(1, 0, 0, 1, 35, 29)"><g clip-path="url(#84e67148e2)"><g fill="#222222" fill-opacity="1"><g transform="translate(1.13297, 94.085879)"><g><path d="M 28.484375 0 L 28.484375 -28.8125 L 0.703125 -74.03125 L 18.96875 -74.03125 L 36.921875 -42.984375 L 54.21875 -74.03125 L 72.484375 -74.03125 L 44.75 -28.8125 L 44.75 0 Z M 28.484375 0 "/></g></g></g><g fill="#222222" fill-opacity="1"><g transform="translate(67.635301, 94.085879)"><g><path d="M 69.453125 -74.03125 L 95.1875 -74.03125 L 95.1875 0 L 78.96875 0 L 78.96875 -57.796875 L 78.5 -57.796875 L 59.34375 0 L 44.609375 0 L 25.5 -57.796875 L 24.984375 -57.796875 L 24.984375 0 L 8.765625 0 L 8.765625 -74.03125 L 34.5 -74.03125 L 51.96875 -20.984375 Z M 69.453125 -74.03125 "/></g></g></g><g fill="#222222" fill-opacity="1"><g transform="translate(164.903656, 94.085879)"><g><path d="M 9.609375 0 L 9.609375 -16.96875 L 26.4375 -16.96875 L 26.4375 0 Z M 9.609375 0 "/></g></g></g><g fill="#222222" fill-opacity="1"><g transform="translate(194.207067, 94.085879)"><g><path d="M 9.5625 12.359375 L 9.5625 0 L 56.078125 0 L 56.078125 12.359375 Z M 9.5625 12.359375 "/></g></g></g></g></g><g transform="matrix(1, 0, 0, 1, 109, 128)"><g clip-path="url(#e235862315)"><g clip-path="url(#a1f847dc4d)"><g fill="#222222" fill-opacity="1"><g transform="translate(0.657687, 29.572248)"><g><path d="M 8.734375 0 L 8.734375 -8.828125 L 0.21875 -22.703125 L 5.8125 -22.703125 L 11.328125 -13.1875 L 16.625 -22.703125 L 22.234375 -22.703125 L 13.71875 -8.828125 L 13.71875 0 Z M 8.734375 0 "/></g></g></g></g><g fill="#222222" fill-opacity="1"><g transform="translate(21.053286, 29.572248)"><g><path d="M 9.828125 -3.421875 C 10.316406 -3.421875 10.804688 -3.5 11.296875 -3.65625 C 11.785156 -3.820312 12.238281 -4.0625 12.65625 -4.375 C 13.070312 -4.6875 13.414062 -5.070312 13.6875 -5.53125 L 16.875 -3.109375 C 16.175781 -2.191406 15.4375 -1.484375 14.65625 -0.984375 C 13.875 -0.484375 13.070312 -0.140625 12.25 0.046875 C 11.425781 0.234375 10.59375 0.328125 9.75 0.328125 C 8.476562 0.328125 7.304688 0.148438 6.234375 -0.203125 C 5.160156 -0.554688 4.222656 -1.085938 3.421875 -1.796875 C 2.628906 -2.515625 2.015625 -3.414062 1.578125 -4.5 C 1.140625 -5.582031 0.921875 -6.851562 0.921875 -8.3125 C 0.921875 -9.664062 1.113281 -10.890625 1.5 -11.984375 C 1.894531 -13.078125 2.453125 -14.007812 3.171875 -14.78125 C 3.898438 -15.550781 4.765625 -16.140625 5.765625 -16.546875 C 6.773438 -16.960938 7.894531 -17.171875 9.125 -17.171875 C 10.269531 -17.171875 11.316406 -16.984375 12.265625 -16.609375 C 13.222656 -16.242188 14.050781 -15.707031 14.75 -15 C 15.445312 -14.289062 15.984375 -13.429688 16.359375 -12.421875 C 16.742188 -11.421875 16.9375 -10.28125 16.9375 -9 C 16.9375 -8.832031 16.929688 -8.675781 16.921875 -8.53125 C 16.921875 -8.382812 16.910156 -8.210938 16.890625 -8.015625 C 16.867188 -7.828125 16.832031 -7.582031 16.78125 -7.28125 L 5.78125 -7.28125 C 5.800781 -6.507812 5.984375 -5.832031 6.328125 -5.25 C 6.679688 -4.675781 7.160156 -4.226562 7.765625 -3.90625 C 8.367188 -3.582031 9.054688 -3.421875 9.828125 -3.421875 Z M 9.046875 -13.59375 C 8.347656 -13.59375 7.773438 -13.460938 7.328125 -13.203125 C 6.890625 -12.953125 6.550781 -12.613281 6.3125 -12.1875 C 6.082031 -11.769531 5.929688 -11.3125 5.859375 -10.8125 L 12.203125 -10.8125 C 12.097656 -11.65625 11.785156 -12.328125 11.265625 -12.828125 C 10.753906 -13.335938 10.015625 -13.59375 9.046875 -13.59375 Z M 9.046875 -13.59375 "/></g></g></g><g fill="#222222" fill-opacity="1"><g transform="translate(36.974108, 29.572248)"><g><path d="M 22.15625 -16.84375 L 27.28125 -16.84375 L 22.96875 0 L 16.40625 0 L 13.765625 -10.59375 L 11.21875 0 L 4.609375 0 L 0.359375 -16.84375 L 5.484375 -16.84375 L 8.15625 -3.59375 L 11.609375 -16.84375 L 15.984375 -16.84375 L 19.421875 -3.515625 Z M 22.15625 -16.84375 "/></g></g></g><g fill="#222222" fill-opacity="1"><g transform="translate(62.545007, 29.572248)"><g><path d="M 7.921875 0.359375 C 6.847656 0.359375 5.882812 0.148438 5.03125 -0.265625 C 4.1875 -0.691406 3.460938 -1.289062 2.859375 -2.0625 C 2.253906 -2.84375 1.796875 -3.769531 1.484375 -4.84375 C 1.171875 -5.925781 1.015625 -7.117188 1.015625 -8.421875 C 1.015625 -9.722656 1.164062 -10.90625 1.46875 -11.96875 C 1.78125 -13.039062 2.234375 -13.960938 2.828125 -14.734375 C 3.421875 -15.515625 4.140625 -16.113281 4.984375 -16.53125 C 5.828125 -16.957031 6.773438 -17.171875 7.828125 -17.171875 C 8.660156 -17.171875 9.378906 -17.078125 9.984375 -16.890625 C 10.585938 -16.703125 11.109375 -16.453125 11.546875 -16.140625 C 11.984375 -15.828125 12.359375 -15.472656 12.671875 -15.078125 L 12.75 -15.078125 L 12.75 -22.703125 L 17.578125 -22.703125 L 17.578125 0 L 12.875 0 L 12.875 -1.765625 L 12.765625 -1.765625 C 12.503906 -1.421875 12.160156 -1.082031 11.734375 -0.75 C 11.304688 -0.425781 10.78125 -0.160156 10.15625 0.046875 C 9.539062 0.253906 8.796875 0.359375 7.921875 0.359375 Z M 9.53125 -3.53125 C 10.238281 -3.53125 10.851562 -3.722656 11.375 -4.109375 C 11.90625 -4.492188 12.316406 -5.050781 12.609375 -5.78125 C 12.898438 -6.519531 13.046875 -7.414062 13.046875 -8.46875 C 13.046875 -9.457031 12.898438 -10.304688 12.609375 -11.015625 C 12.316406 -11.734375 11.90625 -12.285156 11.375 -12.671875 C 10.851562 -13.054688 10.238281 -13.25 9.53125 -13.25 C 8.382812 -13.25 7.488281 -12.847656 6.84375 -12.046875 C 6.207031 -11.253906 5.890625 -10.0625 5.890625 -8.46875 C 5.890625 -6.789062 6.207031 -5.546875 6.84375 -4.734375 C 7.488281 -3.929688 8.382812 -3.53125 9.53125 -3.53125 Z M 9.53125 -3.53125 "/></g></g></g><g fill="#222222" fill-opacity="1"><g transform="translate(80.224292, 29.572248)"><g><path d="M 2.140625 -19.1875 L 2.140625 -22.703125 L 6.96875 -22.703125 L 6.96875 -19.1875 Z M 2.140625 0 L 2.140625 -16.84375 L 6.96875 -16.84375 L 6.96875 0 Z M 2.140625 0 "/></g></g></g><g fill="#222222" fill-opacity="1"><g transform="translate(87.281335, 29.572248)"><g><path d="M 9.828125 -3.421875 C 10.316406 -3.421875 10.804688 -3.5 11.296875 -3.65625 C 11.785156 -3.820312 12.238281 -4.0625 12.65625 -4.375 C 13.070312 -4.6875 13.414062 -5.070312 13.6875 -5.53125 L 16.875 -3.109375 C 16.175781 -2.191406 15.4375 -1.484375 14.65625 -0.984375 C 13.875 -0.484375 13.070312 -0.140625 12.25 0.046875 C 11.425781 0.234375 10.59375 0.328125 9.75 0.328125 C 8.476562 0.328125 7.304688 0.148438 6.234375 -0.203125 C 5.160156 -0.554688 4.222656 -1.085938 3.421875 -1.796875 C 2.628906 -2.515625 2.015625 -3.414062 1.578125 -4.5 C 1.140625 -5.582031 0.921875 -6.851562 0.921875 -8.3125 C 0.921875 -9.664062 1.113281 -10.890625 1.5 -11.984375 C 1.894531 -13.078125 2.453125 -14.007812 3.171875 -14.78125 C 3.898438 -15.550781 4.765625 -16.140625 5.765625 -16.546875 C 6.773438 -16.960938 7.894531 -17.171875 9.125 -17.171875 C 10.269531 -17.171875 11.316406 -16.984375 12.265625 -16.609375 C 13.222656 -16.242188 14.050781 -15.707031 14.75 -15 C 15.445312 -14.289062 15.984375 -13.429688 16.359375 -12.421875 C 16.742188 -11.421875 16.9375 -10.28125 16.9375 -9 C 16.9375 -8.832031 16.929688 -8.675781 16.921875 -8.53125 C 16.921875 -8.382812 16.910156 -8.210938 16.890625 -8.015625 C 16.867188 -7.828125 16.832031 -7.582031 16.78125 -7.28125 L 5.78125 -7.28125 C 5.800781 -6.507812 5.984375 -5.832031 6.328125 -5.25 C 6.679688 -4.675781 7.160156 -4.226562 7.765625 -3.90625 C 8.367188 -3.582031 9.054688 -3.421875 9.828125 -3.421875 Z M 9.046875 -13.59375 C 8.347656 -13.59375 7.773438 -13.460938 7.328125 -13.203125 C 6.890625 -12.953125 6.550781 -12.613281 6.3125 -12.1875 C 6.082031 -11.769531 5.929688 -11.3125 5.859375 -10.8125 L 12.203125 -10.8125 C 12.097656 -11.65625 11.785156 -12.328125 11.265625 -12.828125 C 10.753906 -13.335938 10.015625 -13.59375 9.046875 -13.59375 Z M 9.046875 -13.59375 "/></g></g></g><g clip-path="url(#2a5c5eafd0)"><g fill="#222222" fill-opacity="1"><g transform="translate(103.202153, 29.572248)"><g><path d="M 2.140625 0 L 2.140625 -22.703125 L 6.984375 -22.703125 L 6.984375 0 Z M 2.140625 0 "/></g></g></g></g><g fill="#222222" fill-opacity="1"><g transform="translate(3.699828, 54.207377)"><g><path d="M 21.296875 -22.703125 L 29.203125 -22.703125 L 29.203125 0 L 24.21875 0 L 24.21875 -17.734375 L 24.078125 -17.734375 L 18.203125 0 L 13.6875 0 L 7.828125 -17.734375 L 7.65625 -17.734375 L 7.65625 0 L 2.6875 0 L 2.6875 -22.703125 L 10.578125 -22.703125 L 15.9375 -6.4375 Z M 21.296875 -22.703125 "/></g></g></g><g fill="#222222" fill-opacity="1"><g transform="translate(33.531058, 54.207377)"><g><path d="M 9.828125 -3.421875 C 10.316406 -3.421875 10.804688 -3.5 11.296875 -3.65625 C 11.785156 -3.820312 12.238281 -4.0625 12.65625 -4.375 C 13.070312 -4.6875 13.414062 -5.070312 13.6875 -5.53125 L 16.875 -3.109375 C 16.175781 -2.191406 15.4375 -1.484375 14.65625 -0.984375 C 13.875 -0.484375 13.070312 -0.140625 12.25 0.046875 C 11.425781 0.234375 10.59375 0.328125 9.75 0.328125 C 8.476562 0.328125 7.304688 0.148438 6.234375 -0.203125 C 5.160156 -0.554688 4.222656 -1.085938 3.421875 -1.796875 C 2.628906 -2.515625 2.015625 -3.414062 1.578125 -4.5 C 1.140625 -5.582031 0.921875 -6.851562 0.921875 -8.3125 C 0.921875 -9.664062 1.113281 -10.890625 1.5 -11.984375 C 1.894531 -13.078125 2.453125 -14.007812 3.171875 -14.78125 C 3.898438 -15.550781 4.765625 -16.140625 5.765625 -16.546875 C 6.773438 -16.960938 7.894531 -17.171875 9.125 -17.171875 C 10.269531 -17.171875 11.316406 -16.984375 12.265625 -16.609375 C 13.222656 -16.242188 14.050781 -15.707031 14.75 -15 C 15.445312 -14.289062 15.984375 -13.429688 16.359375 -12.421875 C 16.742188 -11.421875 16.9375 -10.28125 16.9375 -9 C 16.9375 -8.832031 16.929688 -8.675781 16.921875 -8.53125 C 16.921875 -8.382812 16.910156 -8.210938 16.890625 -8.015625 C 16.867188 -7.828125 16.832031 -7.582031 16.78125 -7.28125 L 5.78125 -7.28125 C 5.800781 -6.507812 5.984375 -5.832031 6.328125 -5.25 C 6.679688 -4.675781 7.160156 -4.226562 7.765625 -3.90625 C 8.367188 -3.582031 9.054688 -3.421875 9.828125 -3.421875 Z M 9.046875 -13.59375 C 8.347656 -13.59375 7.773438 -13.460938 7.328125 -13.203125 C 6.890625 -12.953125 6.550781 -12.613281 6.3125 -12.1875 C 6.082031 -11.769531 5.929688 -11.3125 5.859375 -10.8125 L 12.203125 -10.8125 C 12.097656 -11.65625 11.785156 -12.328125 11.265625 -12.828125 C 10.753906 -13.335938 10.015625 -13.59375 9.046875 -13.59375 Z M 9.046875 -13.59375 "/></g></g></g><g fill="#222222" fill-opacity="1"><g transform="translate(49.45188, 54.207377)"><g><path d="M 7.921875 0.359375 C 6.847656 0.359375 5.882812 0.148438 5.03125 -0.265625 C 4.1875 -0.691406 3.460938 -1.289062 2.859375 -2.0625 C 2.253906 -2.84375 1.796875 -3.769531 1.484375 -4.84375 C 1.171875 -5.925781 1.015625 -7.117188 1.015625 -8.421875 C 1.015625 -9.722656 1.164062 -10.90625 1.46875 -11.96875 C 1.78125 -13.039062 2.234375 -13.960938 2.828125 -14.734375 C 3.421875 -15.515625 4.140625 -16.113281 4.984375 -16.53125 C 5.828125 -16.957031 6.773438 -17.171875 7.828125 -17.171875 C 8.660156 -17.171875 9.378906 -17.078125 9.984375 -16.890625 C 10.585938 -16.703125 11.109375 -16.453125 11.546875 -16.140625 C 11.984375 -15.828125 12.359375 -15.472656 12.671875 -15.078125 L 12.75 -15.078125 L 12.75 -22.703125 L 17.578125 -22.703125 L 17.578125 0 L 12.875 0 L 12.875 -1.765625 L 12.765625 -1.765625 C 12.503906 -1.421875 12.160156 -1.082031 11.734375 -0.75 C 11.304688 -0.425781 10.78125 -0.160156 10.15625 0.046875 C 9.539062 0.253906 8.796875 0.359375 7.921875 0.359375 Z M 9.53125 -3.53125 C 10.238281 -3.53125 10.851562 -3.722656 11.375 -4.109375 C 11.90625 -4.492188 12.316406 -5.050781 12.609375 -5.78125 C 12.898438 -6.519531 13.046875 -7.414062 13.046875 -8.46875 C 13.046875 -9.457031 12.898438 -10.304688 12.609375 -11.015625 C 12.316406 -11.734375 11.90625 -12.285156 11.375 -12.671875 C 10.851562 -13.054688 10.238281 -13.25 9.53125 -13.25 C 8.382812 -13.25 7.488281 -12.847656 6.84375 -12.046875 C 6.207031 -11.253906 5.890625 -10.0625 5.890625 -8.46875 C 5.890625 -6.789062 6.207031 -5.546875 6.84375 -4.734375 C 7.488281 -3.929688 8.382812 -3.53125 9.53125 -3.53125 Z M 9.53125 -3.53125 "/></g></g></g><g fill="#222222" fill-opacity="1"><g transform="translate(67.13116, 54.207377)"><g><path d="M 2.140625 -19.1875 L 2.140625 -22.703125 L 6.96875 -22.703125 L 6.96875 -19.1875 Z M 2.140625 0 L 2.140625 -16.84375 L 6.96875 -16.84375 L 6.96875 0 Z M 2.140625 0 "/></g></g></g><g fill="#222222" fill-opacity="1"><g transform="translate(74.188207, 54.207377)"><g><path d="M 2.140625 0 L 2.140625 -16.84375 L 6.890625 -16.84375 L 6.890625 -14.84375 L 7.0625 -14.84375 C 7.375 -15.257812 7.773438 -15.644531 8.265625 -16 C 8.753906 -16.351562 9.332031 -16.632812 10 -16.84375 C 10.664062 -17.0625 11.40625 -17.171875 12.21875 -17.171875 C 13.363281 -17.171875 14.367188 -16.925781 15.234375 -16.4375 C 16.097656 -15.957031 16.765625 -15.257812 17.234375 -14.34375 C 17.710938 -13.425781 17.953125 -12.320312 17.953125 -11.03125 L 17.953125 0 L 13.203125 0 L 13.203125 -9.84375 C 13.203125 -11.082031 12.941406 -11.957031 12.421875 -12.46875 C 11.898438 -12.988281 11.203125 -13.25 10.328125 -13.25 C 9.671875 -13.25 9.085938 -13.109375 8.578125 -12.828125 C 8.078125 -12.546875 7.679688 -12.097656 7.390625 -11.484375 C 7.109375 -10.878906 6.96875 -10.082031 6.96875 -9.09375 L 6.96875 0 Z M 2.140625 0 "/></g></g></g><g fill="#222222" fill-opacity="1"><g transform="translate(91.881788, 54.207377)"><g><path d="M 8.8125 -17.171875 C 10.1875 -17.171875 11.382812 -16.957031 12.40625 -16.53125 C 13.425781 -16.101562 14.210938 -15.457031 14.765625 -14.59375 C 15.328125 -13.726562 15.609375 -12.648438 15.609375 -11.359375 L 15.609375 0 L 11.359375 0 L 11.359375 -1.75 C 10.347656 -0.9375 9.40625 -0.378906 8.53125 -0.078125 C 7.65625 0.210938 6.820312 0.359375 6.03125 0.359375 C 4.976562 0.359375 4.0625 0.175781 3.28125 -0.1875 C 2.5 -0.5625 1.890625 -1.101562 1.453125 -1.8125 C 1.023438 -2.519531 0.8125 -3.367188 0.8125 -4.359375 C 0.8125 -5.179688 0.957031 -5.898438 1.25 -6.515625 C 1.550781 -7.128906 1.96875 -7.664062 2.5 -8.125 C 3.03125 -8.582031 3.65625 -8.976562 4.375 -9.3125 C 5.101562 -9.644531 5.894531 -9.929688 6.75 -10.171875 L 11.359375 -11.484375 C 11.328125 -12.160156 11.070312 -12.675781 10.59375 -13.03125 C 10.125 -13.382812 9.484375 -13.5625 8.671875 -13.5625 C 8.023438 -13.5625 7.367188 -13.460938 6.703125 -13.265625 C 6.046875 -13.066406 5.410156 -12.796875 4.796875 -12.453125 C 4.191406 -12.109375 3.65625 -11.71875 3.1875 -11.28125 L 1.125 -14.46875 C 2.289062 -15.414062 3.53125 -16.101562 4.84375 -16.53125 C 6.15625 -16.957031 7.476562 -17.171875 8.8125 -17.171875 Z M 7.4375 -3.046875 C 8.101562 -3.046875 8.765625 -3.210938 9.421875 -3.546875 C 10.078125 -3.890625 10.722656 -4.335938 11.359375 -4.890625 L 11.359375 -8.03125 L 7.890625 -6.921875 C 7.109375 -6.671875 6.523438 -6.382812 6.140625 -6.0625 C 5.765625 -5.738281 5.578125 -5.296875 5.578125 -4.734375 C 5.578125 -4.210938 5.738281 -3.800781 6.0625 -3.5 C 6.394531 -3.195312 6.851562 -3.046875 7.4375 -3.046875 Z M 7.4375 -3.046875 "/></g></g></g></g></g></svg>